# xmcd CD Database Entry
#
# Track frame offsets:
# 151
# 4464
# 20751
# 37005
# 66009
# 106763
# 135346
# 161620
# 175304
# 216011
# 232008
#
# Disc length: 3429 seconds
#
# Revision: 1
# Processed by: cddbd v1.4PL0 Copyright (c) Steve Scherf et al.
# Submitted via: tcd 2.0b
#
DISCID=920d630b
DTITLE=Bob Walsh - Bob Walsh et le Quatuor à cordes Allard
DYEAR=1900
DGENRE=
TTITLE0=Ouverture
TTITLE1=Montreal n'est pas une ville
TTITLE2=Cookie you
TTITLE3=Matoune
TTITLE4=Tes manières m'intriguent
TTITLE5=For what it's worth
TTITLE6=Georgia
TTITLE7=If you wanna love me
TTITLE8=St-James Infirmary
TTITLE9=You are so beautiful
TTITLE10=When I sing the blues
EXTD=
EXTT0=
EXTT1=
EXTT2=
EXTT3=
EXTT4=
EXTT5=
EXTT6=
EXTT7=
EXTT8=
EXTT9=
EXTT10=
PLAYORDER=
